<?xml version="1.0" encoding="iso-8859-1"?>
<!-- Generator: Adobe Illustrator 16.0.0, SVG Export Plug-In . SVG Version: 6.00 Build 0)  -->
<!DOCTYPE svg PUBLIC "-//W3C//DTD SVG 1.1//EN" "http://www.w3.org/Graphics/SVG/1.1/DTD/svg11.dtd">
<svg version="1.1" id="Capa_1" xmlns="http://www.w3.org/2000/svg" xmlns:xlink="http://www.w3.org/1999/xlink" x="0px" y="0px"
	 width="168.107px" height="168.106px" viewBox="0 0 168.107 168.106" style="enable-background:new 0 0 168.107 168.106; fill:red;"
	 xml:space="preserve">
<g>
	<path d="M143.543,14.515c-6.799-3.743-14.613-5.91-22.952-5.91c-14.644,0-27.847,6.694-36.515,17.201
		C75.336,15.3,62.219,8.605,47.478,8.605c-8.304,0-16.12,2.167-22.925,5.91C9.917,22.592,0,38.157,0,56.08
		c0,5.122,0.819,10.047,2.331,14.645c4.465,20.093,28.622,34.735,49.585,51.414c17.196,13.657,32.167,37.362,32.167,37.362
		s14.512-23.377,31.39-36.77c21.081-16.682,45.768-31.642,50.302-51.997c1.516-4.597,2.333-9.521,2.333-14.643
		C168.099,38.157,158.186,22.592,143.543,14.515z M152.965,66.521c-0.461,1.445-1.774,2.299-3.185,2.299
		c-0.346,0-0.724,0-1.05-0.131c-1.775-0.589-2.728-2.493-2.135-4.269c0.885-2.629,1.345-5.453,1.345-8.339
		c0-9.917-5.416-19.105-14.123-23.901c-4.1-2.298-8.531-3.414-13.227-3.414c-1.869,0-3.354-1.514-3.354-3.35
		c0-1.907,1.485-3.352,3.354-3.352c5.845,0,11.393,1.379,16.477,4.271c10.84,5.909,17.57,17.335,17.57,29.745
		C154.638,59.689,154.081,63.169,152.965,66.521z"/>
</g>
<g>
</g>
<g>
</g>
<g>
</g>
<g>
</g>
<g>
</g>
<g>
</g>
<g>
</g>
<g>
</g>
<g>
</g>
<g>
</g>
<g>
</g>
<g>
</g>
<g>
</g>
<g>
</g>
<g>
</g>
</svg>
